# xmcd CD database file
#
# Track frame offsets:
#	150
#	18502
#	34895
#	54783
#	71395
#	89537
#	100860
#	117902
#	127052
#	139849
#	153022
#	165907
#
# Disc length: 2543 seconds
#
# Revision: 0
# Processed by: cddbd v1.5.1PL0 Copyright (c) Steve Scherf et al.
# Submitted via: CDex 1.51
#
DISCID=9309ed0c
DTITLE=Kemal Achourbekov - On Aikaa
DYEAR=2004
DGENRE=Jazz
TTITLE0=Säkkijärven polkka
TTITLE1=Vain rakkaus
TTITLE2=Lullaby of Birdland
TTITLE3=Caravan
TTITLE4=Misty
TTITLE5=Sapelitanssi
TTITLE6=Barcarole
TTITLE7=Preludi E-molli
TTITLE8=Kehtolaulu
TTITLE9=Kuusi
TTITLE10=Romanssi
TTITLE11=The Man I Love
EXTD=YEAR: 2004
EXTT0=
EXTT1=
EXTT2=
EXTT3=
EXTT4=
EXTT5=
EXTT6=
EXTT7=
EXTT8=
EXTT9=
EXTT10=
EXTT11=
PLAYORDER=
